<svg xmlns="http://www.w3.org/2000/svg" width="20" height="20"  viewBox="0 0 20 20"><g transform="matrix(1 0 0 1 0 0)"  ><g style=""   ><g transform="matrix(0.83 0 0 0.83 10 10)"  ><path style="stroke: none; stroke-width: 1; stroke-dasharray: none; stroke-linecap: butt; stroke-dashoffset: 0; stroke-linejoin: miter; stroke-miterlimit: 4; fill: rgb(87,94,107); fill-rule: nonzero; opacity: 1;"  transform=" translate(-12, -12)" d="M 20 10.0001 L 20 8.0011 L 19.9912 7.87024 C 19.974 7.74095 19.9318 7.61576 19.8662 7.50208 C 19.7785 7.35025 19.6519 7.22355 19.5 7.13586 L 19.5 7.13489 L 12.5039 3.13782 L 12.5 3.13586 C 12.348 3.04813 12.1755 3.00208 12 3.00208 C 11.8245 3.00208 11.652 3.04813 11.5 3.13586 L 11.4961 3.13782 L 4.49902 7.13489 L 4.5 7.13586 C 4.34813 7.22355 4.22155 7.35025 4.13379 7.50208 C 4.04623 7.65377 4.00018 7.82594 4 8.0011 L 4 15.9991 L 4.00879 16.13 C 4.02601 16.2593 4.06815 16.3845 4.13379 16.4982 C 4.22077 16.6486 4.34602 16.7739 4.49609 16.8615 L 11.4961 20.8615 L 11.5 20.8644 L 11.6172 20.922 C 11.7381 20.9721 11.8682 20.9982 12 20.9982 C 12.1755 20.9982 12.348 20.9521 12.5 20.8644 L 12.5049 20.8615 L 14.5049 19.7208 C 14.9847 19.4475 15.5957 19.6151 15.8691 20.0948 C 16.1425 20.5746 15.9749 21.1856 15.4951 21.4591 L 13.4951 22.5988 L 13.4941 22.5978 C 13.0393 22.8592 12.5246 22.9982 12 22.9982 C 11.4748 22.9982 10.9591 22.8597 10.5039 22.5978 L 10.5039 22.5988 L 3.50391 18.5988 L 3.5 18.5958 C 3.04444 18.3328 2.6656 17.9546 2.40234 17.4991 C 2.17201 17.1006 2.03732 16.655 2.00684 16.1974 L 2 16.0011 L 2 7.99915 L 2.00684 7.80188 C 2.03742 7.34461 2.17219 6.89942 2.40234 6.5011 C 2.66559 6.04569 3.04448 5.66746 3.5 5.40442 L 3.50391 5.40149 L 10.5039 1.40149 L 10.5039 1.40247 C 10.9591 1.14051 11.4748 1.00208 12 1.00208 C 12.5249 1.00208 13.0401 1.14078 13.4951 1.40247 L 13.4961 1.40149 L 20.4961 5.40149 L 20.5 5.40442 L 20.667 5.50793 C 21.0483 5.76279 21.3673 6.10252 21.5977 6.5011 C 21.8608 6.95647 21.9995 7.47322 22 7.99915 L 22 10.0001 C 21.9999 10.5524 21.5523 11.0001 21 11.0001 C 20.4477 11.0001 20.0001 10.5524 20 10.0001 Z" stroke-linecap="round" /></g><g transform="matrix(0.83 0 0 0.83 10 5.7)"  ><path style="stroke: none; stroke-width: 1; stroke-dasharray: none; stroke-linecap: butt; stroke-dashoffset: 0; stroke-linejoin: miter; stroke-miterlimit: 4; fill: rgb(87,94,107); fill-rule: nonzero; opacity: 1;"  transform=" translate(-12, -6.85)" d="M 6.63185 3.77295 C 6.88906 3.32372 7.44226 3.14999 7.90529 3.35596 L 7.99708 3.40186 L 16.9971 8.55225 L 17.083 8.60693 C 17.4952 8.90176 17.6252 9.46712 17.3682 9.9165 C 17.1111 10.3659 16.5578 10.5404 16.0947 10.3345 L 16.0029 10.2876 L 7.00294 5.13818 L 6.91701 5.08252 C 6.50493 4.78759 6.37474 4.22227 6.63185 3.77295 Z" stroke-linecap="round" /></g><g transform="matrix(0.83 0 0 0.83 10 7.92)"  ><path style="stroke: none; stroke-width: 1; stroke-dasharray: none; stroke-linecap: butt; stroke-dashoffset: 0; stroke-linejoin: miter; stroke-miterlimit: 4; fill: rgb(87,94,107); fill-rule: nonzero; opacity: 1;"  transform=" translate(-12, -9.5)" d="M 20.2119 6.13282 C 20.6908 5.85791 21.3021 6.02315 21.5771 6.50197 C 21.852 6.9809 21.6868 7.59221 21.208 7.8672 L 12.498 12.8672 C 12.2283 13.022 11.9043 13.0418 11.621 12.9258 L 11.5019 12.8672 L 2.79194 7.8672 L 2.706 7.81154 C 2.29433 7.51604 2.16507 6.95094 2.4228 6.50197 C 2.68054 6.0532 3.23357 5.87965 3.69624 6.08595 L 3.78804 6.13282 L 11.9999 10.8467 L 20.2119 6.13282 Z" stroke-linecap="round" /></g><g transform="matrix(0.83 0 0 0.83 10 14.17)"  ><path style="stroke: none; stroke-width: 1; stroke-dasharray: none; stroke-linecap: butt; stroke-dashoffset: 0; stroke-linejoin: miter; stroke-miterlimit: 4; fill: rgb(87,94,107); fill-rule: nonzero; opacity: 1;"  transform=" translate(-12, -17)" d="M 11 22 L 11 12 C 11 11.4477 11.4477 11 12 11 C 12.5523 11 13 11.4477 13 12 L 13 22 C 13 22.5523 12.5523 23 12 23 C 11.4477 23 11 22.5523 11 22 Z" stroke-linecap="round" /></g><g transform="matrix(0.83 0 0 0.83 15.42 12.92)"  ><path style="stroke: none; stroke-width: 1; stroke-dasharray: none; stroke-linecap: butt; stroke-dashoffset: 0; stroke-linejoin: miter; stroke-miterlimit: 4; fill: rgb(87,94,107); fill-rule: nonzero; opacity: 1;"  transform=" translate(-18.5, -15.5)" d="M 20 15.5 C 20 14.6716 19.3284 14 18.5 14 C 17.6716 14 17 14.6716 17 15.5 C 17 16.3284 17.6716 17 18.5 17 C 19.3284 17 20 16.3284 20 15.5 Z M 22 15.5 C 22 17.433 20.433 19 18.5 19 C 16.567 19 15 17.433 15 15.5 C 15 13.567 16.567 12 18.5 12 C 20.433 12 22 13.567 22 15.5 Z" stroke-linecap="round" /></g><g transform="matrix(0.83 0 0 0.83 17.61 15.11)"  ><path style="stroke: none; stroke-width: 1; stroke-dasharray: none; stroke-linecap: butt; stroke-dashoffset: 0; stroke-linejoin: miter; stroke-miterlimit: 4; fill: rgb(87,94,107); fill-rule: nonzero; opacity: 1;"  transform=" translate(-21.14, -18.14)" d="M 19.563 16.563 C 19.9291 16.1969 20.5081 16.1743 20.9009 16.4946 L 20.9771 16.563 L 22.7075 18.2925 L 22.7759 18.3687 C 23.0963 18.7614 23.0737 19.3414 22.7075 19.7075 C 22.3414 20.0737 21.7614 20.0963 21.3687 19.7759 L 21.2925 19.7075 L 19.563 17.9771 L 19.4946 17.9009 C 19.1743 17.5081 19.1969 16.9291 19.563 16.563 Z" stroke-linecap="round" /></g></g></g></svg>