<svg xmlns="http://www.w3.org/2000/svg" width="20" height="20"  viewBox="0 0 20 20"><g transform="matrix(1 0 0 1 0 0)"  ><g style=""   ><g transform="matrix(0.83 0 0 0.83 9.99 10)"  ><path style="stroke: none; stroke-width: 1; stroke-dasharray: none; stroke-linecap: butt; stroke-dashoffset: 0; stroke-linejoin: miter; stroke-miterlimit: 4; fill: rgb(87,94,107); fill-rule: nonzero; opacity: 1;"  transform=" translate(-11.99, -12)" d="M 20.9949 11.9999 C 20.9949 11.4965 20.8685 11.0011 20.6268 10.5595 C 20.3849 10.1178 20.0354 9.74385 19.6111 9.47256 C 19.2567 9.24588 19.0825 8.82154 19.1746 8.41104 C 19.2856 7.91755 19.2695 7.4037 19.1287 6.91788 C 18.9879 6.43209 18.7265 5.98944 18.369 5.63174 C 18.0112 5.27402 17.5687 5.01187 17.0828 4.871 C 16.6576 4.74775 16.2109 4.7205 15.7752 4.78995 L 15.5897 4.82608 C 15.2301 4.90691 14.8597 4.78267 14.6209 4.5126 L 14.5272 4.38858 C 14.2559 3.96446 13.8828 3.61476 13.4412 3.37296 C 13.0547 3.16132 12.6266 3.03821 12.1883 3.01065 L 11.9998 3.00479 C 11.4964 3.00482 11.001 3.13125 10.5594 3.37296 C 10.1177 3.6148 9.74375 3.96434 9.47247 4.38858 C 9.24586 4.74299 8.82142 4.91811 8.41095 4.82608 C 7.9182 4.71565 7.40577 4.73153 6.92072 4.87198 C 6.43554 5.01249 5.9931 5.273 5.63556 5.62979 C 5.27815 5.98654 5.01631 6.42823 4.87482 6.91299 C 4.73343 7.39769 4.71658 7.91033 4.82599 8.40323 C 4.91736 8.81481 4.74084 9.23929 4.38458 9.46475 C 3.95718 9.73524 3.60516 10.1096 3.36115 10.5526 C 3.11714 10.9958 2.98909 11.494 2.98907 11.9999 L 2.99493 12.1894 C 3.02277 12.6296 3.14764 13.0594 3.36115 13.4472 C 3.60514 13.8903 3.95718 14.2645 4.38458 14.5351 C 4.74082 14.7605 4.91732 15.185 4.82599 15.5966 C 4.71652 16.0897 4.73329 16.6029 4.87482 17.0878 C 5.01631 17.5724 5.27825 18.0133 5.63556 18.37 C 5.9931 18.7268 6.43554 18.9883 6.92072 19.1288 C 7.40565 19.2692 7.91832 19.2851 8.41095 19.1747 L 8.56525 19.1523 C 8.92532 19.1288 9.27538 19.302 9.47345 19.6132 L 9.5799 19.7694 C 9.83904 20.1252 10.1742 20.4201 10.5613 20.6327 C 11.0037 20.8756 11.5001 21.0028 12.0047 21.0028 C 12.5095 21.0028 13.0066 20.8757 13.449 20.6327 C 13.8914 20.3898 14.2651 20.039 14.5359 19.6132 L 14.6297 19.4892 C 14.8677 19.2188 15.237 19.094 15.5965 19.1737 L 15.782 19.2089 C 16.2173 19.2772 16.6633 19.2488 17.0877 19.1249 C 17.5725 18.9834 18.0142 18.7217 18.3709 18.3642 C 18.7275 18.0067 18.9882 17.5649 19.1287 17.08 C 19.2692 16.5948 19.2851 16.0816 19.1746 15.5888 C 19.0826 15.1783 19.2567 14.7539 19.6111 14.5273 C 20.0354 14.256 20.3849 13.882 20.6268 13.4403 C 20.8685 12.9987 20.9949 12.5033 20.9949 11.9999 Z M 22.9949 11.9999 C 22.9949 12.8392 22.7838 13.6651 22.3807 14.4013 C 22.0853 14.9408 21.6928 15.4182 21.2264 15.8134 C 21.2794 16.4248 21.2214 17.0425 21.0496 17.6357 C 20.8154 18.4443 20.3806 19.1814 19.7859 19.7773 C 19.1914 20.3729 18.4561 20.809 17.6483 21.0448 C 17.0555 21.2178 16.4375 21.2772 15.826 21.2255 C 15.4306 21.6943 14.9519 22.0887 14.4109 22.3857 C 13.6736 22.7905 12.8459 23.0028 12.0047 23.0028 C 11.1635 23.0028 10.3358 22.7905 9.59845 22.3857 C 9.05792 22.0888 8.57958 21.6949 8.18439 21.2265 C 7.57364 21.2791 6.95656 21.2213 6.36407 21.0497 C 5.55551 20.8155 4.81933 20.3806 4.22345 19.786 C 3.62764 19.1915 3.1908 18.4563 2.9549 17.6483 C 2.78199 17.056 2.72175 16.4382 2.77325 15.8271 C 2.30294 15.4319 1.90732 14.9525 1.60919 14.411 C 1.25341 13.7647 1.0452 13.0491 0.99884 12.3153 L 0.989075 11.9999 C 0.989091 11.1567 1.20256 10.3274 1.60919 9.58878 C 1.90745 9.04706 2.30269 8.56707 2.77325 8.17178 C 2.72194 7.56117 2.78218 6.94434 2.9549 6.35245 C 3.19077 5.54432 3.62755 4.80843 4.22345 4.21378 C 4.81931 3.61923 5.55555 3.18426 6.36407 2.9501 C 6.95714 2.77836 7.57501 2.71942 8.18634 2.77237 C 8.58142 2.30625 9.0592 1.91434 9.59845 1.61905 C 10.3346 1.21599 11.1606 1.00482 11.9998 1.00479 L 12.3143 1.01456 C 13.0445 1.06054 13.7571 1.26644 14.4012 1.61905 C 14.9404 1.9143 15.4182 2.30629 15.8133 2.77237 C 16.4259 2.71897 17.0451 2.77783 17.6395 2.9501 C 18.4493 3.18484 19.1868 3.62052 19.783 4.21671 C 20.3792 4.81288 20.8148 5.55049 21.0496 6.36026 C 21.2219 6.95453 21.2798 7.57385 21.2264 8.18643 C 21.6928 8.58161 22.0852 9.05904 22.3807 9.59854 C 22.7838 10.3347 22.9949 11.1606 22.9949 11.9999 Z" stroke-linecap="round" /></g><g transform="matrix(0.83 0 0 0.83 10 6.67)"  ><path style="stroke: none; stroke-width: 1; stroke-dasharray: none; stroke-linecap: butt; stroke-dashoffset: 0; stroke-linejoin: miter; stroke-miterlimit: 4; fill: rgb(87,94,107); fill-rule: nonzero; opacity: 1;"  transform=" translate(-12, -8)" d="M 16 7 C 16.5523 7 17 7.44772 17 8 C 17 8.55228 16.5523 9 16 9 L 8 9 C 7.44772 9 7 8.55228 7 8 C 7 7.44772 7.44772 7 8 7 L 16 7 Z" stroke-linecap="round" /></g><g transform="matrix(0.83 0 0 0.83 10 10)"  ><path style="stroke: none; stroke-width: 1; stroke-dasharray: none; stroke-linecap: butt; stroke-dashoffset: 0; stroke-linejoin: miter; stroke-miterlimit: 4; fill: rgb(87,94,107); fill-rule: nonzero; opacity: 1;"  transform=" translate(-12, -12)" d="M 16 11 C 16.5523 11 17 11.4477 17 12 C 17 12.5523 16.5523 13 16 13 L 8 13 C 7.44772 13 7 12.5523 7 12 C 7 11.4477 7.44772 11 8 11 L 16 11 Z" stroke-linecap="round" /></g><g transform="matrix(0.83 0 0 0.83 8.75 10.42)"  ><path style="stroke: none; stroke-width: 1; stroke-dasharray: none; stroke-linecap: butt; stroke-dashoffset: 0; stroke-linejoin: miter; stroke-miterlimit: 4; fill: rgb(87,94,107); fill-rule: nonzero; opacity: 1;"  transform=" translate(-10.5, -12.5)" d="M 12 12 C 12 11.2044 11.6837 10.4415 11.1211 9.87891 C 10.6289 9.38671 9.98349 9.08291 9.29685 9.01465 L 8.99998 9 L 8.89744 8.99512 C 8.39331 8.94379 7.99998 8.51768 7.99998 8 C 7.99998 7.44772 8.44769 7 8.99998 7 L 9.24803 7.00586 C 10.4838 7.06719 11.6561 7.58579 12.5351 8.46484 C 13.4728 9.40253 14 10.6739 14 12 L 13.9941 12.248 C 13.9328 13.4838 13.4142 14.6561 12.5351 15.5352 C 12.4338 15.6365 12.3275 15.7317 12.2187 15.8232 L 13.1963 16.0195 L 13.2949 16.0449 C 13.7795 16.1939 14.082 16.6885 13.9804 17.1963 C 13.8788 17.7039 13.4097 18.0437 12.9053 17.9951 L 12.8037 17.9805 L 7.80369 16.9805 C 7.29965 16.8796 6.95421 16.4129 7.00486 15.9014 C 7.05557 15.3898 7.48589 15 7.99998 15 L 8.99998 15 L 9.29685 14.9854 C 9.98349 14.9171 10.6289 14.6133 11.1211 14.1211 C 11.6133 13.6289 11.9171 12.9835 11.9853 12.2969 L 12 12 Z" stroke-linecap="round" /></g></g></g></svg>