<svg xmlns="http://www.w3.org/2000/svg" width="24" height="24"  viewBox="0 0 24 24"><g transform="matrix(1 0 0 1 0 0)"  ><g style=""   ><g transform="matrix(1 0 0 1 12 5.5)"  ><path style="stroke: none; stroke-width: 1; stroke-dasharray: none; stroke-linecap: butt; stroke-dashoffset: 0; stroke-linejoin: miter; stroke-miterlimit: 4; fill: rgb(87,94,107); fill-rule: nonzero; opacity: 1;"  transform=" translate(-12, -5.5)" d="M 3 4 L 3 7 L 21 7 L 21 4 L 3 4 Z M 23 7 C 23 8.10457 22.1046 9 21 9 L 3 9 C 1.89543 9 1 8.10457 1 7 L 1 4 C 1 2.89543 1.89543 2 3 2 L 21 2 C 22.1046 2 23 2.89543 23 4 L 23 7 Z" stroke-linecap="round" /></g><g transform="matrix(1 0 0 1 12 14.5)"  ><path style="stroke: none; stroke-width: 1; stroke-dasharray: none; stroke-linecap: butt; stroke-dashoffset: 0; stroke-linejoin: miter; stroke-miterlimit: 4; fill: rgb(87,94,107); fill-rule: nonzero; opacity: 1;"  transform=" translate(-12, -14.5)" d="M 3 19 L 3 8 C 3 7.44772 3.44772 7 4 7 C 4.55228 7 5 7.44772 5 8 L 5 19 L 5.00488 19.0986 C 5.02757 19.3276 5.12883 19.5429 5.29297 19.707 C 5.48051 19.8946 5.73478 20 6 20 L 18 20 C 18.2652 20 18.5195 19.8946 18.707 19.707 C 18.8946 19.5195 19 19.2652 19 19 L 19 8 C 19 7.44772 19.4477 7 20 7 C 20.5523 7 21 7.44772 21 8 L 21 19 C 21 19.7957 20.6837 20.5585 20.1211 21.1211 C 19.5585 21.6837 18.7957 22 18 22 L 6 22 C 5.20435 22 4.44152 21.6837 3.87891 21.1211 C 3.38671 20.6289 3.08291 19.9835 3.01465 19.2969 L 3 19 Z" stroke-linecap="round" /></g><g transform="matrix(1 0 0 1 12 12)"  ><path style="stroke: none; stroke-width: 1; stroke-dasharray: none; stroke-linecap: butt; stroke-dashoffset: 0; stroke-linejoin: miter; stroke-miterlimit: 4; fill: rgb(87,94,107); fill-rule: nonzero; opacity: 1;"  transform=" translate(-12, -12)" d="M 14 11 C 14.5523 11 15 11.4477 15 12 C 15 12.5523 14.5523 13 14 13 L 10 13 C 9.44772 13 9 12.5523 9 12 C 9 11.4477 9.44772 11 10 11 L 14 11 Z" stroke-linecap="round" /></g></g></g></svg>